<?xml version="1.0" encoding="UTF-8"?>
<svg width="1351px" height="474px" viewBox="0 0 1351 474" version="1.1" xmlns="http://www.w3.org/2000/svg" xmlns:xlink="http://www.w3.org/1999/xlink">
    <!-- Generator: Sketch 51.1 (57501) - http://www.bohemiancoding.com/sketch -->
    <title>logo-horizontal-primary</title>
    <desc>Created with Sketch.</desc>
    <defs></defs>
    <g id="logo-horizontal-primary" stroke="none" stroke-width="1" fill="none" fill-rule="evenodd">
        <g id="logotype" transform="translate(474.000000, 100.000000)">
            <path d="M0,183.68 L0,40.32 C0,14 14,0 40.32,0 L71.68,0 C98,0 112,14 112,40.32 L112,183.68 C112,210 98,224 71.68,224 L40.32,224 C14,224 0,210 0,183.68 Z M48.44,187.88 L64.68,187.88 C71.96,187.88 75.88,184.24 75.88,176.68 L75.88,47.32 C75.88,40.04 71.96,36.12 64.68,36.12 L48.44,36.12 C41.16,36.12 37.24,40.04 37.24,47.32 L37.24,176.68 C37.24,184.24 41.16,187.88 48.44,187.88 Z M223.959999,0 L253.079999,0 C255.879999,0 257.559999,1.68 257.559999,4.48 L257.559999,219.52 C257.559999,222.32 255.879999,224 253.079999,224 L225.359999,224 C222.839999,224 221.159999,222.88 220.319999,220.36 L177.479999,100.8 L176.079999,100.8 L176.079999,219.52 C176.079999,222.32 174.679999,224 171.599999,224 L142.479999,224 C139.679999,224 137.999999,222.32 137.999999,219.52 L137.999999,4.48 C137.999999,1.68 139.679999,0 142.479999,0 L170.199999,0 C172.719999,0 174.399999,1.12 175.239999,3.64 L217.799999,122.64 L219.479999,122.64 L219.479999,4.48 C219.479999,1.68 220.879999,0 223.959999,0 Z M395.279997,4.48 L395.279997,32.48 C395.279997,35.28 394.159997,37.24 390.799997,37.24 L320.799997,37.24 L320.799997,93.24 L374.279997,93.24 C377.079997,93.24 378.759997,94.92 378.759997,98 L378.759997,125.72 C378.759997,128.8 377.079997,130.48 374.279997,130.48 L320.799997,130.48 L320.799997,187.04 L390.799997,187.04 C394.159997,187.04 395.279997,188.44 395.279997,191.52 L395.279997,219.52 C395.279997,222.32 394.159997,224 390.799997,224 L287.759997,224 C285.239997,224 283.559997,222.32 283.559997,219.52 L283.559997,4.48 C283.559997,1.68 285.239997,0 287.759997,0 L390.799997,0 C394.159997,0 395.279997,1.68 395.279997,4.48 Z M418.479996,219.52 L418.479996,4.48 C418.479996,1.68 419.879996,0 422.959996,0 L490.159996,0 C516.479996,0 530.479996,14.28 530.479996,40.6 L530.479996,183.68 C530.479996,210 516.479996,224 490.159996,224 L422.959996,224 C419.879996,224 418.479996,222.6 418.479996,219.52 Z M456.559996,187.04 L482.319996,187.04 C489.599996,187.04 493.519996,183.4 493.519996,175.84 L493.519996,48.44 C493.519996,40.88 489.599996,36.96 482.319996,36.96 L456.559996,36.96 L456.559996,187.04 Z M668.199994,4.48 L668.199994,32.48 C668.199994,35.28 667.079994,37.24 663.719994,37.24 L593.719994,37.24 L593.719994,93.24 L647.199994,93.24 C649.999994,93.24 651.679994,94.92 651.679994,98 L651.679994,125.72 C651.679994,128.8 649.999994,130.48 647.199994,130.48 L593.719994,130.48 L593.719994,187.04 L663.719994,187.04 C667.079994,187.04 668.199994,188.44 668.199994,191.52 L668.199994,219.52 C668.199994,222.32 667.079994,224 663.719994,224 L560.679994,224 C558.159994,224 556.479994,222.32 556.479994,219.52 L556.479994,4.48 C556.479994,1.68 558.159994,0 560.679994,0 L663.719994,0 C667.079994,0 668.199994,1.68 668.199994,4.48 Z M791.919993,0 L818.519993,0 C822.719993,0 824.399993,2.24 823.559993,6.16 L776.239993,218.96 C775.399993,222.32 773.439993,224 770.079993,224 L742.079993,224 C738.719993,224 736.759993,222.32 735.919993,218.96 L688.879993,6.16 C688.039993,2.24 689.719993,0 693.919993,0 L720.519993,0 C723.879993,0 725.839993,1.68 726.679993,5.04 L756.079993,155.12 L785.759993,5.04 C786.599993,1.68 788.559993,0 791.919993,0 Z" id="ONEDEV" fill="#4DBA87"></path>
            <text id=".studio" font-family="Yellowtail" font-size="163" font-weight="normal" line-spacing="34" fill="#435466">
                <tspan x="466" y="396">.studio</tspan>
            </text>
        </g>
        <g id="icon" transform="translate(54.000000, 37.000000)" stroke="#4DBA87" stroke-linecap="round" stroke-linejoin="round" stroke-width="32">
            <polyline id="Shape" points="164 400 320 244.5 164 89"></polyline>
            <polyline id="Shape" points="156 0 0 155.5 156 311"></polyline>
        </g>
    </g>
</svg>